<svg id="visual" viewBox="0 0 900 600" width="900" height="600" xmlns="http://www.w3.org/2000/svg" xmlns:xlink="http://www.w3.org/1999/xlink" version="1.1"><g stroke-width="1" stroke-linejoin="bevel"><path d="M470 307L453 340.9L473 336.9Z" fill="#b4bec9" stroke="#b4bec9"></path><path d="M470 307L427 320.9L453 340.9Z" fill="#baebf5" stroke="#baebf5"></path><path d="M470 307L425 313L427 320.9Z" fill="#b9d7e5" stroke="#b9d7e5"></path><path d="M423 391.7L464 368.7L453 340.9Z" fill="#bfffff" stroke="#bfffff"></path><path d="M453 340.9L464 368.7L473 336.9Z" fill="#baebf5" stroke="#baebf5"></path><path d="M524 276L485 263.1L470 307Z" fill="#b9deeb" stroke="#b9deeb"></path><path d="M470 307L409 282.1L425 313Z" fill="#b9d7e5" stroke="#b9d7e5"></path><path d="M438 245.3L409 282.1L470 307Z" fill="#b9d7e5" stroke="#b9d7e5"></path><path d="M362 323.9L423 391.7L427 320.9Z" fill="#bdf8fc" stroke="#bdf8fc"></path><path d="M401 400.6L423 391.7L362 323.9Z" fill="#b9d7e5" stroke="#b9d7e5"></path><path d="M427 320.9L423 391.7L453 340.9Z" fill="#bdf8fc" stroke="#bdf8fc"></path><path d="M464 368.7L497 391.6L473 336.9Z" fill="#b9d7e5" stroke="#b9d7e5"></path><path d="M540 311.9L524 276L470 307Z" fill="#b4bec9" stroke="#b4bec9"></path><path d="M456 441.6L497 391.6L464 368.7Z" fill="#bae5f0" stroke="#bae5f0"></path><path d="M540 311.9L470 307L473 336.9Z" fill="#b8d1df" stroke="#b8d1df"></path><path d="M435 241.1L438 245.3L515 234.3Z" fill="#bdf8fc" stroke="#bdf8fc"></path><path d="M485 263.1L438 245.3L470 307Z" fill="#bdf8fc" stroke="#bdf8fc"></path><path d="M550 333L540 311.9L473 336.9Z" fill="#bfffff" stroke="#bfffff"></path><path d="M540 311.9L533 282.1L524 276Z" fill="#bbf2f9" stroke="#bbf2f9"></path><path d="M515 234.3L438 245.3L485 263.1Z" fill="#bbf2f9" stroke="#bbf2f9"></path><path d="M438 245.3L435 241.1L409 282.1Z" fill="#b4bec9" stroke="#b4bec9"></path><path d="M523 390.7L550 333L473 336.9Z" fill="#b9d7e5" stroke="#b9d7e5"></path><path d="M540 311.9L553 268L533 282.1Z" fill="#bbf2f9" stroke="#bbf2f9"></path><path d="M497 391.6L523 390.7L473 336.9Z" fill="#bbf2f9" stroke="#bbf2f9"></path><path d="M362 323.9L427 320.9L425 313Z" fill="#bae5f0" stroke="#bae5f0"></path><path d="M423 391.7L456 441.6L464 368.7Z" fill="#bbf2f9" stroke="#bbf2f9"></path><path d="M528 443.6L551 426.6L523 390.7Z" fill="#bdf8fc" stroke="#bdf8fc"></path><path d="M355 328L362 323.9L348 328.9Z" fill="#baebf5" stroke="#baebf5"></path><path d="M409 282.1L362 323.9L425 313Z" fill="#bae5f0" stroke="#bae5f0"></path><path d="M553 268L515 234.3L524 276Z" fill="#b9deeb" stroke="#b9deeb"></path><path d="M524 276L515 234.3L485 263.1Z" fill="#b8d1df" stroke="#b8d1df"></path><path d="M368 271.1L362 323.9L409 282.1Z" fill="#b6c4d1" stroke="#b6c4d1"></path><path d="M362 323.9L370 398.6L401 400.6Z" fill="#bbf2f9" stroke="#bbf2f9"></path><path d="M435 241.1L368 271.1L409 282.1Z" fill="#bfffff" stroke="#bfffff"></path><path d="M595 341.9L553 268L540 311.9Z" fill="#bbf2f9" stroke="#bbf2f9"></path><path d="M533 282.1L553 268L524 276Z" fill="#b9deeb" stroke="#b9deeb"></path><path d="M351 271L348 328.9L362 323.9Z" fill="#b9deeb" stroke="#b9deeb"></path><path d="M370 398.6L384 406.7L401 400.6Z" fill="#b6c4d1" stroke="#b6c4d1"></path><path d="M370 398.6L362 323.9L343 371.7Z" fill="#baebf5" stroke="#baebf5"></path><path d="M415 447.4L456 441.6L423 391.7Z" fill="#baebf5" stroke="#baebf5"></path><path d="M343 371.7L362 323.9L355 328Z" fill="#b9d7e5" stroke="#b9d7e5"></path><path d="M415 447.4L423 391.7L401 400.6Z" fill="#baebf5" stroke="#baebf5"></path><path d="M332 226.1L351 271L368 271.1Z" fill="#bbf2f9" stroke="#bbf2f9"></path><path d="M368 271.1L351 271L362 323.9Z" fill="#baebf5" stroke="#baebf5"></path><path d="M563 400.7L564 389.7L523 390.7Z" fill="#b8d1df" stroke="#b8d1df"></path><path d="M523 390.7L564 389.7L550 333Z" fill="#b9deeb" stroke="#b9deeb"></path><path d="M550 333L595 341.9L540 311.9Z" fill="#bfffff" stroke="#bfffff"></path><path d="M553 268L528 218.3L515 234.3Z" fill="#bbf2f9" stroke="#bbf2f9"></path><path d="M515 234.3L427 174.4L435 241.1Z" fill="#bdf8fc" stroke="#bdf8fc"></path><path d="M298 370.7L343 371.7L348 328.9Z" fill="#b9d7e5" stroke="#b9d7e5"></path><path d="M348 328.9L343 371.7L355 328Z" fill="#bae5f0" stroke="#bae5f0"></path><path d="M551 426.6L563 400.7L523 390.7Z" fill="#b9d7e5" stroke="#b9d7e5"></path><path d="M415 447.4L458 452.4L456 441.6Z" fill="#bdf8fc" stroke="#bdf8fc"></path><path d="M456 441.6L528 443.6L497 391.6Z" fill="#bfffff" stroke="#bfffff"></path><path d="M415 447.4L401 400.6L384 406.7Z" fill="#baebf5" stroke="#baebf5"></path><path d="M415 447.4L384 406.7L367 486.4Z" fill="#b9deeb" stroke="#b9deeb"></path><path d="M393 487.3L415 447.4L367 486.4Z" fill="#baebf5" stroke="#baebf5"></path><path d="M614 338.9L595 341.9L639 374.7Z" fill="#b9deeb" stroke="#b9deeb"></path><path d="M564 389.7L595 341.9L550 333Z" fill="#b7cad8" stroke="#b7cad8"></path><path d="M585 216.3L525 185.4L528 218.3Z" fill="#b6c4d1" stroke="#b6c4d1"></path><path d="M528 443.6L523 390.7L497 391.6Z" fill="#b9deeb" stroke="#b9deeb"></path><path d="M593 410.7L595 341.9L564 389.7Z" fill="#bdf8fc" stroke="#bdf8fc"></path><path d="M458 452.4L528 443.6L456 441.6Z" fill="#b9deeb" stroke="#b9deeb"></path><path d="M415 447.4L457 463.4L458 452.4Z" fill="#b9deeb" stroke="#b9deeb"></path><path d="M458 452.4L525 483.3L528 443.6Z" fill="#bdf8fc" stroke="#bdf8fc"></path><path d="M427 174.4L386 194.3L435 241.1Z" fill="#b7cad8" stroke="#b7cad8"></path><path d="M435 241.1L386 194.3L368 271.1Z" fill="#b7cad8" stroke="#b7cad8"></path><path d="M525 185.4L427 174.4L515 234.3Z" fill="#b6c4d1" stroke="#b6c4d1"></path><path d="M585 216.3L528 218.3L553 268Z" fill="#b7cad8" stroke="#b7cad8"></path><path d="M528 218.3L525 185.4L515 234.3Z" fill="#b9d7e5" stroke="#b9d7e5"></path><path d="M593 410.7L564 389.7L563 400.7Z" fill="#bfffff" stroke="#bfffff"></path><path d="M622 255.1L615 246.3L553 268Z" fill="#b9deeb" stroke="#b9deeb"></path><path d="M577 434.4L563 400.7L551 426.6Z" fill="#b9d7e5" stroke="#b9d7e5"></path><path d="M577 434.4L593 410.7L563 400.7Z" fill="#b6c4d1" stroke="#b6c4d1"></path><path d="M386 194.3L332 226.1L368 271.1Z" fill="#bfffff" stroke="#bfffff"></path><path d="M289 363.9L298 370.7L348 328.9Z" fill="#b4bec9" stroke="#b4bec9"></path><path d="M544 480.4L551 426.6L528 443.6Z" fill="#baebf5" stroke="#baebf5"></path><path d="M544 480.4L577 434.4L551 426.6Z" fill="#bdf8fc" stroke="#bdf8fc"></path><path d="M615 246.3L585 216.3L553 268Z" fill="#b7cad8" stroke="#b7cad8"></path><path d="M577 136.6L521 169.4L525 185.4Z" fill="#bbf2f9" stroke="#bbf2f9"></path><path d="M525 185.4L503 149.6L427 174.4Z" fill="#bae5f0" stroke="#bae5f0"></path><path d="M289 363.9L348 328.9L236 264Z" fill="#b8d1df" stroke="#b8d1df"></path><path d="M343 371.7L297 446.6L370 398.6Z" fill="#b9d7e5" stroke="#b9d7e5"></path><path d="M422 155.4L373 178.4L386 194.3Z" fill="#b7cad8" stroke="#b7cad8"></path><path d="M331 191.3L329 194.3L332 226.1Z" fill="#bae5f0" stroke="#bae5f0"></path><path d="M466 118.7L422 155.4L427 174.4Z" fill="#b7cad8" stroke="#b7cad8"></path><path d="M427 174.4L422 155.4L386 194.3Z" fill="#bfffff" stroke="#bfffff"></path><path d="M639 374.7L632 329L614 338.9Z" fill="#bfffff" stroke="#bfffff"></path><path d="M622 255.1L553 268L595 341.9Z" fill="#b6c4d1" stroke="#b6c4d1"></path><path d="M457 463.4L525 483.3L458 452.4Z" fill="#b6c4d1" stroke="#b6c4d1"></path><path d="M622 255.1L595 341.9L614 338.9Z" fill="#b8d1df" stroke="#b8d1df"></path><path d="M236 264L348 328.9L351 271Z" fill="#bdf8fc" stroke="#bdf8fc"></path><path d="M632 329L622 255.1L614 338.9Z" fill="#b7cad8" stroke="#b7cad8"></path><path d="M367 486.4L384 406.7L370 398.6Z" fill="#bae5f0" stroke="#bae5f0"></path><path d="M415 447.4L393 487.3L457 463.4Z" fill="#b9deeb" stroke="#b9deeb"></path><path d="M457 463.4L460 522.1L525 483.3Z" fill="#bfffff" stroke="#bfffff"></path><path d="M367 486.4L370 398.6L297 446.6Z" fill="#bfffff" stroke="#bfffff"></path><path d="M525 483.3L544 480.4L528 443.6Z" fill="#baebf5" stroke="#baebf5"></path><path d="M577 136.6L503 149.6L521 169.4Z" fill="#bae5f0" stroke="#bae5f0"></path><path d="M521 169.4L503 149.6L525 185.4Z" fill="#bae5f0" stroke="#bae5f0"></path><path d="M331 191.3L386 194.3L373 178.4Z" fill="#b9deeb" stroke="#b9deeb"></path><path d="M331 191.3L332 226.1L386 194.3Z" fill="#baebf5" stroke="#baebf5"></path><path d="M332 226.1L262 235.1L351 271Z" fill="#b6c4d1" stroke="#b6c4d1"></path><path d="M371 136.6L331 191.3L373 178.4Z" fill="#bbf2f9" stroke="#bbf2f9"></path><path d="M650 423.6L639 374.7L593 410.7Z" fill="#b9d7e5" stroke="#b9d7e5"></path><path d="M593 410.7L639 374.7L595 341.9Z" fill="#b8d1df" stroke="#b8d1df"></path><path d="M632 329L665 273.1L622 255.1Z" fill="#b6c4d1" stroke="#b6c4d1"></path><path d="M609 453.4L593 410.7L577 434.4Z" fill="#b4bec9" stroke="#b4bec9"></path><path d="M297 446.6L343 371.7L298 370.7Z" fill="#baebf5" stroke="#baebf5"></path><path d="M466 118.7L422 136.6L422 155.4Z" fill="#bfffff" stroke="#bfffff"></path><path d="M422 155.4L371 136.6L373 178.4Z" fill="#b6c4d1" stroke="#b6c4d1"></path><path d="M544 480.4L609 453.4L577 434.4Z" fill="#b7cad8" stroke="#b7cad8"></path><path d="M421 525.1L457 463.4L393 487.3Z" fill="#bae5f0" stroke="#bae5f0"></path><path d="M421 525.1L460 522.1L457 463.4Z" fill="#bae5f0" stroke="#bae5f0"></path><path d="M525 483.3L536 538.3L544 480.4Z" fill="#b9d7e5" stroke="#b9d7e5"></path><path d="M544 480.4L569 525.1L609 453.4Z" fill="#b9d7e5" stroke="#b9d7e5"></path><path d="M238 438.6L297 446.6L298 370.7Z" fill="#b9deeb" stroke="#b9deeb"></path><path d="M469 76.9L512 54.9L504 54.9Z" fill="#bbf2f9" stroke="#bbf2f9"></path><path d="M503 149.6L466 118.7L427 174.4Z" fill="#b9deeb" stroke="#b9deeb"></path><path d="M402 536.3L393 487.3L367 486.4Z" fill="#bfffff" stroke="#bfffff"></path><path d="M402 536.3L421 525.1L393 487.3Z" fill="#b9deeb" stroke="#b9deeb"></path><path d="M416 97.7L371 136.6L422 136.6Z" fill="#baebf5" stroke="#baebf5"></path><path d="M422 136.6L371 136.6L422 155.4Z" fill="#b9deeb" stroke="#b9deeb"></path><path d="M301 159.6L329 194.3L331 191.3Z" fill="#b8d1df" stroke="#b8d1df"></path><path d="M282 180.4L288 208.3L329 194.3Z" fill="#b4bec9" stroke="#b4bec9"></path><path d="M329 194.3L288 208.3L332 226.1Z" fill="#b8d1df" stroke="#b8d1df"></path><path d="M466 118.7L441 114.6L422 136.6Z" fill="#b8d1df" stroke="#b8d1df"></path><path d="M697 318.9L665 273.1L632 329Z" fill="#bae5f0" stroke="#bae5f0"></path><path d="M622 255.1L665 241.3L615 246.3Z" fill="#baebf5" stroke="#baebf5"></path><path d="M643 175.4L605 163.4L585 216.3Z" fill="#b9d7e5" stroke="#b9d7e5"></path><path d="M585 216.3L605 163.4L525 185.4Z" fill="#bbf2f9" stroke="#bbf2f9"></path><path d="M421 525.1L460 535.1L460 522.1Z" fill="#b7cad8" stroke="#b7cad8"></path><path d="M460 522.1L536 538.3L525 483.3Z" fill="#b9d7e5" stroke="#b9d7e5"></path><path d="M609 453.4L650 423.6L593 410.7Z" fill="#b8d1df" stroke="#b8d1df"></path><path d="M639 374.7L684 372.9L632 329Z" fill="#bbf2f9" stroke="#bbf2f9"></path><path d="M643 175.4L585 216.3L615 246.3Z" fill="#b6c4d1" stroke="#b6c4d1"></path><path d="M288 208.3L262 235.1L332 226.1Z" fill="#b4bec9" stroke="#b4bec9"></path><path d="M289 363.9L238 438.6L298 370.7Z" fill="#baebf5" stroke="#baebf5"></path><path d="M605 163.4L577 136.6L525 185.4Z" fill="#baebf5" stroke="#baebf5"></path><path d="M417 96.7L416 97.7L441 114.6Z" fill="#bdf8fc" stroke="#bdf8fc"></path><path d="M665 273.1L665 241.3L622 255.1Z" fill="#baebf5" stroke="#baebf5"></path><path d="M360 545.1L402 536.3L367 486.4Z" fill="#baebf5" stroke="#baebf5"></path><path d="M421 525.1L439 551.3L460 535.1Z" fill="#bbf2f9" stroke="#bbf2f9"></path><path d="M371 136.6L301 159.6L331 191.3Z" fill="#bdf8fc" stroke="#bdf8fc"></path><path d="M288 208.3L282 180.4L262 235.1Z" fill="#b9deeb" stroke="#b9deeb"></path><path d="M301 159.6L282 180.4L329 194.3Z" fill="#bfffff" stroke="#bfffff"></path><path d="M484 600L536 538.3L460 535.1Z" fill="#bae5f0" stroke="#bae5f0"></path><path d="M460 535.1L536 538.3L460 522.1Z" fill="#baebf5" stroke="#baebf5"></path><path d="M654 481.3L665 426.6L650 423.6Z" fill="#b9deeb" stroke="#b9deeb"></path><path d="M402 536.3L439 551.3L421 525.1Z" fill="#b8d1df" stroke="#b8d1df"></path><path d="M650 423.6L684 372.9L639 374.7Z" fill="#bae5f0" stroke="#bae5f0"></path><path d="M704 270L672 220.1L665 241.3Z" fill="#b8d1df" stroke="#b8d1df"></path><path d="M441 114.6L416 97.7L422 136.6Z" fill="#b8d1df" stroke="#b8d1df"></path><path d="M296 106.7L277 122.7L301 159.6Z" fill="#bbf2f9" stroke="#bbf2f9"></path><path d="M417 96.7L441 114.6L469 76.9Z" fill="#bdf8fc" stroke="#bdf8fc"></path><path d="M536 538.3L569 525.1L544 480.4Z" fill="#b8d1df" stroke="#b8d1df"></path><path d="M654 481.3L650 423.6L609 453.4Z" fill="#bdf8fc" stroke="#bdf8fc"></path><path d="M650 423.6L665 426.6L684 372.9Z" fill="#bfffff" stroke="#bfffff"></path><path d="M469 76.9L441 114.6L466 118.7Z" fill="#b9d7e5" stroke="#b9d7e5"></path><path d="M277 122.7L261 161.4L301 159.6Z" fill="#bae5f0" stroke="#bae5f0"></path><path d="M231 238.3L236 264L262 235.1Z" fill="#bfffff" stroke="#bfffff"></path><path d="M262 235.1L236 264L351 271Z" fill="#b9deeb" stroke="#b9deeb"></path><path d="M301 159.6L284 171.4L282 180.4Z" fill="#bbf2f9" stroke="#bbf2f9"></path><path d="M261 161.4L231 238.3L262 235.1Z" fill="#bae5f0" stroke="#bae5f0"></path><path d="M620 92.6L578 110.6L577 136.6Z" fill="#b7cad8" stroke="#b7cad8"></path><path d="M672 220.1L643 175.4L615 246.3Z" fill="#bbf2f9" stroke="#bbf2f9"></path><path d="M704 270L665 241.3L665 273.1Z" fill="#baebf5" stroke="#baebf5"></path><path d="M665 241.3L672 220.1L615 246.3Z" fill="#bdf8fc" stroke="#bdf8fc"></path><path d="M260 476.3L311 506.4L297 446.6Z" fill="#bbf2f9" stroke="#bbf2f9"></path><path d="M297 446.6L311 506.4L367 486.4Z" fill="#baebf5" stroke="#baebf5"></path><path d="M406 600L443 600L439 551.3Z" fill="#b9deeb" stroke="#b9deeb"></path><path d="M684 372.9L697 318.9L632 329Z" fill="#b8d1df" stroke="#b8d1df"></path><path d="M620 92.6L577 136.6L635 100.7Z" fill="#bae5f0" stroke="#bae5f0"></path><path d="M577 136.6L578 110.6L503 149.6Z" fill="#b9d7e5" stroke="#b9d7e5"></path><path d="M311 506.4L360 545.1L367 486.4Z" fill="#bfffff" stroke="#bfffff"></path><path d="M261 161.4L262 235.1L282 180.4Z" fill="#baebf5" stroke="#baebf5"></path><path d="M469 76.9L466 118.7L512 54.9Z" fill="#b6c4d1" stroke="#b6c4d1"></path><path d="M536 538.3L574 542.1L569 525.1Z" fill="#b4bec9" stroke="#b4bec9"></path><path d="M618 532.3L654 481.3L609 453.4Z" fill="#b9deeb" stroke="#b9deeb"></path><path d="M535 600L574 542.1L536 538.3Z" fill="#b6c4d1" stroke="#b6c4d1"></path><path d="M697 318.9L704 270L665 273.1Z" fill="#baebf5" stroke="#baebf5"></path><path d="M205 295L289 363.9L236 264Z" fill="#bdf8fc" stroke="#bdf8fc"></path><path d="M204 395.6L238 438.6L289 363.9Z" fill="#bbf2f9" stroke="#bbf2f9"></path><path d="M618 532.3L609 453.4L569 525.1Z" fill="#b9d7e5" stroke="#b9d7e5"></path><path d="M665 426.6L705 417.6L684 372.9Z" fill="#b4bec9" stroke="#b4bec9"></path><path d="M238 438.6L260 476.3L297 446.6Z" fill="#baebf5" stroke="#baebf5"></path><path d="M311 506.4L283 531.1L360 545.1Z" fill="#b8d1df" stroke="#b8d1df"></path><path d="M301 159.6L261 161.4L284 171.4Z" fill="#baebf5" stroke="#baebf5"></path><path d="M284 171.4L261 161.4L282 180.4Z" fill="#b6c4d1" stroke="#b6c4d1"></path><path d="M296 106.7L371 136.6L345 58.9Z" fill="#b9deeb" stroke="#b9deeb"></path><path d="M203 249.1L236 264L231 238.3Z" fill="#b4bec9" stroke="#b4bec9"></path><path d="M203 249.1L205 295L236 264Z" fill="#bbf2f9" stroke="#bbf2f9"></path><path d="M771 305L717 300L774 310Z" fill="#b9deeb" stroke="#b9deeb"></path><path d="M697 318.9L717 300L704 270Z" fill="#bfffff" stroke="#bfffff"></path><path d="M786 340.9L697 318.9L684 372.9Z" fill="#bdf8fc" stroke="#bdf8fc"></path><path d="M654 481.3L688 446.4L665 426.6Z" fill="#baebf5" stroke="#baebf5"></path><path d="M574 542.1L618 532.3L569 525.1Z" fill="#bdf8fc" stroke="#bdf8fc"></path><path d="M654 481.3L682 479.3L688 446.4Z" fill="#b7cad8" stroke="#b7cad8"></path><path d="M688 446.4L705 417.6L665 426.6Z" fill="#b8d1df" stroke="#b8d1df"></path><path d="M461 0L428 60.9L469 76.9Z" fill="#bdf8fc" stroke="#bdf8fc"></path><path d="M469 76.9L428 60.9L417 96.7Z" fill="#b6c4d1" stroke="#b6c4d1"></path><path d="M417 96.7L382 51.7L416 97.7Z" fill="#baebf5" stroke="#baebf5"></path><path d="M205 295L195 332.9L289 363.9Z" fill="#bfffff" stroke="#bfffff"></path><path d="M195 332.9L204 395.6L289 363.9Z" fill="#baebf5" stroke="#baebf5"></path><path d="M238 438.6L234 482.4L260 476.3Z" fill="#b9deeb" stroke="#b9deeb"></path><path d="M283 531.1L281 520.3L210 527.3Z" fill="#baebf5" stroke="#baebf5"></path><path d="M260 476.3L281 520.3L311 506.4Z" fill="#b9d7e5" stroke="#b9d7e5"></path><path d="M181 198.4L203 249.1L231 238.3Z" fill="#bbf2f9" stroke="#bbf2f9"></path><path d="M205 295L190 284.1L195 332.9Z" fill="#bfffff" stroke="#bfffff"></path><path d="M620 92.6L582 82.7L578 110.6Z" fill="#baebf5" stroke="#baebf5"></path><path d="M512 54.9L466 118.7L503 149.6Z" fill="#b4bec9" stroke="#b4bec9"></path><path d="M296 106.7L301 159.6L371 136.6Z" fill="#b8d1df" stroke="#b8d1df"></path><path d="M261 161.4L181 198.4L231 238.3Z" fill="#baebf5" stroke="#baebf5"></path><path d="M382 51.7L371 136.6L416 97.7Z" fill="#b9deeb" stroke="#b9deeb"></path><path d="M650 529.1L682 479.3L654 481.3Z" fill="#bdf8fc" stroke="#bdf8fc"></path><path d="M738 431.6L726 411.7L705 417.6Z" fill="#b6c4d1" stroke="#b6c4d1"></path><path d="M512 54.9L503 149.6L578 110.6Z" fill="#bae5f0" stroke="#bae5f0"></path><path d="M703 192.4L699 193.3L730 226.1Z" fill="#b4bec9" stroke="#b4bec9"></path><path d="M672 220.1L699 193.3L643 175.4Z" fill="#bfffff" stroke="#bfffff"></path><path d="M635 100.7L577 136.6L605 163.4Z" fill="#b9d7e5" stroke="#b9d7e5"></path><path d="M699 193.3L672 220.1L730 226.1Z" fill="#b9d7e5" stroke="#b9d7e5"></path><path d="M203 249.1L190 284.1L205 295Z" fill="#b6c4d1" stroke="#b6c4d1"></path><path d="M234 482.4L281 520.3L260 476.3Z" fill="#bdf8fc" stroke="#bdf8fc"></path><path d="M281 520.3L283 531.1L311 506.4Z" fill="#b7cad8" stroke="#b7cad8"></path><path d="M546 47.7L512 54.9L578 110.6Z" fill="#b9deeb" stroke="#b9deeb"></path><path d="M730 226.1L672 220.1L704 270Z" fill="#b6c4d1" stroke="#b6c4d1"></path><path d="M692 126.6L635 100.7L643 175.4Z" fill="#b8d1df" stroke="#b8d1df"></path><path d="M202 471.4L234 482.4L238 438.6Z" fill="#bdf8fc" stroke="#bdf8fc"></path><path d="M406 600L439 551.3L402 536.3Z" fill="#b8d1df" stroke="#b8d1df"></path><path d="M439 551.3L484 600L460 535.1Z" fill="#baebf5" stroke="#baebf5"></path><path d="M610 600L644 543.1L618 532.3Z" fill="#b9d7e5" stroke="#b9d7e5"></path><path d="M406 600L402 536.3L397 600Z" fill="#baebf5" stroke="#baebf5"></path><path d="M174 374.9L192 395.7L204 395.6Z" fill="#baebf5" stroke="#baebf5"></path><path d="M193 460.6L202 471.4L238 438.6Z" fill="#baebf5" stroke="#baebf5"></path><path d="M174 374.9L204 395.6L195 332.9Z" fill="#bbf2f9" stroke="#bbf2f9"></path><path d="M443 600L484 600L439 551.3Z" fill="#baebf5" stroke="#baebf5"></path><path d="M644 543.1L650 529.1L618 532.3Z" fill="#b8d1df" stroke="#b8d1df"></path><path d="M618 532.3L650 529.1L654 481.3Z" fill="#baebf5" stroke="#baebf5"></path><path d="M714 479.4L688 446.4L682 479.3Z" fill="#b4bec9" stroke="#b4bec9"></path><path d="M738 431.6L705 417.6L688 446.4Z" fill="#b9deeb" stroke="#b9deeb"></path><path d="M705 417.6L726 411.7L684 372.9Z" fill="#bdf8fc" stroke="#bdf8fc"></path><path d="M635 100.7L605 163.4L643 175.4Z" fill="#bfffff" stroke="#bfffff"></path><path d="M582 82.7L546 47.7L578 110.6Z" fill="#b4bec9" stroke="#b4bec9"></path><path d="M397 600L402 536.3L360 545.1Z" fill="#b9deeb" stroke="#b9deeb"></path><path d="M427 0L382 51.7L428 60.9Z" fill="#b6c4d1" stroke="#b6c4d1"></path><path d="M428 60.9L382 51.7L417 96.7Z" fill="#bfffff" stroke="#bfffff"></path><path d="M461 0L469 76.9L504 54.9Z" fill="#b7cad8" stroke="#b7cad8"></path><path d="M692 126.6L643 175.4L699 193.3Z" fill="#baebf5" stroke="#baebf5"></path><path d="M345 58.9L292 94.6L296 106.7Z" fill="#bae5f0" stroke="#bae5f0"></path><path d="M296 106.7L292 94.6L277 122.7Z" fill="#b4bec9" stroke="#b4bec9"></path><path d="M187 159.6L181 198.4L261 161.4Z" fill="#bdf8fc" stroke="#bdf8fc"></path><path d="M308 600L397 600L360 545.1Z" fill="#b9d7e5" stroke="#b9d7e5"></path><path d="M484 600L535 600L536 538.3Z" fill="#bbf2f9" stroke="#bbf2f9"></path><path d="M610 600L618 532.3L574 542.1Z" fill="#bdf8fc" stroke="#bdf8fc"></path><path d="M724 522.3L714 479.4L682 479.3Z" fill="#bbf2f9" stroke="#bbf2f9"></path><path d="M750 271.1L730 226.1L704 270Z" fill="#bae5f0" stroke="#bae5f0"></path><path d="M692 126.6L646 84.7L635 100.7Z" fill="#bae5f0" stroke="#bae5f0"></path><path d="M750 271.1L704 270L717 300Z" fill="#b9deeb" stroke="#b9deeb"></path><path d="M382 51.7L345 58.9L371 136.6Z" fill="#bdf8fc" stroke="#bdf8fc"></path><path d="M564 11.9L546 47.7L582 82.7Z" fill="#b7cad8" stroke="#b7cad8"></path><path d="M504 0L461 0L504 54.9Z" fill="#bae5f0" stroke="#bae5f0"></path><path d="M564 11.9L582 82.7L602 0Z" fill="#b8d1df" stroke="#b8d1df"></path><path d="M149 309L174 374.9L195 332.9Z" fill="#b6c4d1" stroke="#b6c4d1"></path><path d="M193 460.6L238 438.6L204 395.6Z" fill="#baebf5" stroke="#baebf5"></path><path d="M118 400.6L172 379.7L113 376.9Z" fill="#b6c4d1" stroke="#b6c4d1"></path><path d="M174 374.9L172 379.7L192 395.7Z" fill="#bdf8fc" stroke="#bdf8fc"></path><path d="M771 305L750 271.1L717 300Z" fill="#b9d7e5" stroke="#b9d7e5"></path><path d="M193 460.6L204 395.6L184 455.4Z" fill="#b4bec9" stroke="#b4bec9"></path><path d="M234 482.4L210 527.3L281 520.3Z" fill="#b9deeb" stroke="#b9deeb"></path><path d="M724 522.3L682 479.3L650 529.1Z" fill="#bdf8fc" stroke="#bdf8fc"></path><path d="M714 479.4L738 431.6L688 446.4Z" fill="#bae5f0" stroke="#bae5f0"></path><path d="M774 310L717 300L786 340.9Z" fill="#bae5f0" stroke="#bae5f0"></path><path d="M184 455.4L204 395.6L192 395.7Z" fill="#b8d1df" stroke="#b8d1df"></path><path d="M692 126.6L699 193.3L711 136.6Z" fill="#b9d7e5" stroke="#b9d7e5"></path><path d="M635 100.7L646 84.7L620 92.6Z" fill="#bdf8fc" stroke="#bdf8fc"></path><path d="M141 484.3L208 491.3L202 471.4Z" fill="#baebf5" stroke="#baebf5"></path><path d="M202 471.4L208 491.3L234 482.4Z" fill="#bae5f0" stroke="#bae5f0"></path><path d="M283 531.1L284 574.1L360 545.1Z" fill="#bbf2f9" stroke="#bbf2f9"></path><path d="M711 136.6L699 193.3L703 192.4Z" fill="#b9deeb" stroke="#b9deeb"></path><path d="M740 186.3L703 192.4L730 226.1Z" fill="#b8d1df" stroke="#b8d1df"></path><path d="M187 159.6L261 161.4L208 118.7Z" fill="#baebf5" stroke="#baebf5"></path><path d="M203 249.1L143 277.1L190 284.1Z" fill="#b7cad8" stroke="#b7cad8"></path><path d="M190 284.1L149 309L195 332.9Z" fill="#b9deeb" stroke="#b9deeb"></path><path d="M118 400.6L184 455.4L192 395.7Z" fill="#b6c4d1" stroke="#b6c4d1"></path><path d="M193 460.6L141 484.3L202 471.4Z" fill="#b4bec9" stroke="#b4bec9"></path><path d="M252 578.1L284 574.1L283 531.1Z" fill="#bdf8fc" stroke="#bdf8fc"></path><path d="M143 277.1L149 309L190 284.1Z" fill="#bfffff" stroke="#bfffff"></path><path d="M172 379.7L118 400.6L192 395.7Z" fill="#b9deeb" stroke="#b9deeb"></path><path d="M717 300L697 318.9L786 340.9Z" fill="#bfffff" stroke="#bfffff"></path><path d="M753 175.4L740 186.3L768 188.4Z" fill="#b7cad8" stroke="#b7cad8"></path><path d="M740 186.3L730 226.1L768 188.4Z" fill="#bdf8fc" stroke="#bdf8fc"></path><path d="M740 186.3L711 136.6L703 192.4Z" fill="#bfffff" stroke="#bfffff"></path><path d="M666 46.9L658 49.9L646 84.7Z" fill="#bae5f0" stroke="#bae5f0"></path><path d="M786 340.9L684 372.9L726 411.7Z" fill="#b9deeb" stroke="#b9deeb"></path><path d="M768 188.4L816 222.1L810 205.3Z" fill="#bae5f0" stroke="#bae5f0"></path><path d="M535 600L610 600L574 542.1Z" fill="#bbf2f9" stroke="#bbf2f9"></path><path d="M684 580.1L724 522.3L650 529.1Z" fill="#b8d1df" stroke="#b8d1df"></path><path d="M284 574.1L308 600L360 545.1Z" fill="#baebf5" stroke="#baebf5"></path><path d="M791 463.4L765 407.7L738 431.6Z" fill="#bbf2f9" stroke="#bbf2f9"></path><path d="M738 431.6L765 407.7L726 411.7Z" fill="#b6c4d1" stroke="#b6c4d1"></path><path d="M208 118.7L261 161.4L277 122.7Z" fill="#baebf5" stroke="#baebf5"></path><path d="M160 201.3L143 277.1L203 249.1Z" fill="#bfffff" stroke="#bfffff"></path><path d="M208 118.7L277 122.7L218 68.9Z" fill="#bbf2f9" stroke="#bbf2f9"></path><path d="M160 201.3L203 249.1L181 198.4Z" fill="#bae5f0" stroke="#bae5f0"></path><path d="M208 491.3L210 527.3L234 482.4Z" fill="#bdf8fc" stroke="#bdf8fc"></path><path d="M284 574.1L268 600L308 600Z" fill="#bdf8fc" stroke="#bdf8fc"></path><path d="M142 522.1L210 527.3L208 491.3Z" fill="#bae5f0" stroke="#bae5f0"></path><path d="M504 0L512 54.9L516 0Z" fill="#bdf8fc" stroke="#bdf8fc"></path><path d="M504 0L504 54.9L512 54.9Z" fill="#b7cad8" stroke="#b7cad8"></path><path d="M382 51.7L392 0L345 58.9Z" fill="#b9d7e5" stroke="#b9d7e5"></path><path d="M187 159.6L160 201.3L181 198.4Z" fill="#b8d1df" stroke="#b8d1df"></path><path d="M293 42.9L292 94.6L345 58.9Z" fill="#bfffff" stroke="#bfffff"></path><path d="M218 68.9L277 122.7L292 94.6Z" fill="#bdf8fc" stroke="#bdf8fc"></path><path d="M145 157.6L148 198.4L160 201.3Z" fill="#b9deeb" stroke="#b9deeb"></path><path d="M461 0L427 0L428 60.9Z" fill="#b9d7e5" stroke="#b9d7e5"></path><path d="M516 0L512 54.9L546 47.7Z" fill="#b7cad8" stroke="#b7cad8"></path><path d="M293 39.9L293 42.9L345 58.9Z" fill="#bae5f0" stroke="#bae5f0"></path><path d="M765 407.7L786 340.9L726 411.7Z" fill="#baebf5" stroke="#baebf5"></path><path d="M730 226.1L816 222.1L768 188.4Z" fill="#baebf5" stroke="#baebf5"></path><path d="M564 11.9L516 0L546 47.7Z" fill="#b9d7e5" stroke="#b9d7e5"></path><path d="M658 49.9L582 82.7L620 92.6Z" fill="#bfffff" stroke="#bfffff"></path><path d="M658 49.9L620 92.6L646 84.7Z" fill="#baebf5" stroke="#baebf5"></path><path d="M740 186.3L753 175.4L711 136.6Z" fill="#baebf5" stroke="#baebf5"></path><path d="M750 271.1L816 222.1L730 226.1Z" fill="#bfffff" stroke="#bfffff"></path><path d="M297 0L293 39.9L345 58.9Z" fill="#bae5f0" stroke="#bae5f0"></path><path d="M293 42.9L218 68.9L292 94.6Z" fill="#b8d1df" stroke="#b8d1df"></path><path d="M210 527.3L252 578.1L283 531.1Z" fill="#bdf8fc" stroke="#bdf8fc"></path><path d="M427 0L392 0L382 51.7Z" fill="#baebf5" stroke="#baebf5"></path><path d="M610 600L640 600L644 543.1Z" fill="#bdf8fc" stroke="#bdf8fc"></path><path d="M714 479.4L791 463.4L738 431.6Z" fill="#b9d7e5" stroke="#b9d7e5"></path><path d="M684 580.1L650 529.1L644 543.1Z" fill="#b8d1df" stroke="#b8d1df"></path><path d="M145 157.6L160 201.3L187 159.6Z" fill="#bae5f0" stroke="#bae5f0"></path><path d="M160 201.3L148 198.4L143 277.1Z" fill="#b6c4d1" stroke="#b6c4d1"></path><path d="M798 321.9L771 305L774 310Z" fill="#bae5f0" stroke="#bae5f0"></path><path d="M666 46.9L692 126.6L735 85.7Z" fill="#baebf5" stroke="#baebf5"></path><path d="M240 600L268 600L252 578.1Z" fill="#bfffff" stroke="#bfffff"></path><path d="M252 578.1L268 600L284 574.1Z" fill="#b9d7e5" stroke="#b9d7e5"></path><path d="M640 600L652 600L644 543.1Z" fill="#baebf5" stroke="#baebf5"></path><path d="M692 126.6L711 136.6L735 85.7Z" fill="#b9deeb" stroke="#b9deeb"></path><path d="M666 46.9L646 84.7L692 126.6Z" fill="#b7cad8" stroke="#b7cad8"></path><path d="M854 354.9L798 321.9L786 340.9Z" fill="#b4bec9" stroke="#b4bec9"></path><path d="M786 340.9L798 321.9L774 310Z" fill="#b6c4d1" stroke="#b6c4d1"></path><path d="M822 388.7L786 340.9L765 407.7Z" fill="#b6c4d1" stroke="#b6c4d1"></path><path d="M652 600L684 580.1L644 543.1Z" fill="#b4bec9" stroke="#b4bec9"></path><path d="M88 300L116 302L86 281.1Z" fill="#bfffff" stroke="#bfffff"></path><path d="M143 277.1L116 302L149 309Z" fill="#b8d1df" stroke="#b8d1df"></path><path d="M113 376.9L172 379.7L174 374.9Z" fill="#baebf5" stroke="#baebf5"></path><path d="M184 455.4L141 484.3L193 460.6Z" fill="#bdf8fc" stroke="#bdf8fc"></path><path d="M735 85.7L711 136.6L745 94.6Z" fill="#b8d1df" stroke="#b8d1df"></path><path d="M658 49.9L602 0L582 82.7Z" fill="#b9d7e5" stroke="#b9d7e5"></path><path d="M111 359.7L174 374.9L149 309Z" fill="#bdf8fc" stroke="#bdf8fc"></path><path d="M116 302L111 359.7L149 309Z" fill="#bae5f0" stroke="#bae5f0"></path><path d="M293 39.9L218 68.9L293 42.9Z" fill="#b4bec9" stroke="#b4bec9"></path><path d="M208 118.7L153 144.6L187 159.6Z" fill="#bfffff" stroke="#bfffff"></path><path d="M204 0L218 68.9L293 39.9Z" fill="#b8d1df" stroke="#b8d1df"></path><path d="M111 359.7L113 376.9L174 374.9Z" fill="#bbf2f9" stroke="#bbf2f9"></path><path d="M664 0L602 0L658 49.9Z" fill="#baebf5" stroke="#baebf5"></path><path d="M564 11.9L602 0L516 0Z" fill="#b6c4d1" stroke="#b6c4d1"></path><path d="M736 547.3L737 542.1L724 522.3Z" fill="#baebf5" stroke="#baebf5"></path><path d="M800 483.3L791 463.4L714 479.4Z" fill="#bae5f0" stroke="#bae5f0"></path><path d="M172 600L240 600L210 527.3Z" fill="#bae5f0" stroke="#bae5f0"></path><path d="M210 527.3L240 600L252 578.1Z" fill="#b6c4d1" stroke="#b6c4d1"></path><path d="M154 70.7L153 144.6L208 118.7Z" fill="#b8d1df" stroke="#b8d1df"></path><path d="M86 281.1L116 302L143 277.1Z" fill="#b7cad8" stroke="#b7cad8"></path><path d="M684 580.1L736 547.3L724 522.3Z" fill="#bdf8fc" stroke="#bdf8fc"></path><path d="M800 483.3L714 479.4L724 522.3Z" fill="#b9d7e5" stroke="#b9d7e5"></path><path d="M153 144.6L145 157.6L187 159.6Z" fill="#b4bec9" stroke="#b4bec9"></path><path d="M145 157.6L133 181.3L148 198.4Z" fill="#bdf8fc" stroke="#bdf8fc"></path><path d="M98 431.6L141 484.3L184 455.4Z" fill="#bae5f0" stroke="#bae5f0"></path><path d="M800 483.3L724 522.3L737 542.1Z" fill="#bfffff" stroke="#bfffff"></path><path d="M392 0L297 0L345 58.9Z" fill="#b4bec9" stroke="#b4bec9"></path><path d="M297 0L295 0L293 39.9Z" fill="#bae5f0" stroke="#bae5f0"></path><path d="M745 94.6L711 136.6L753 175.4Z" fill="#bae5f0" stroke="#bae5f0"></path><path d="M666 46.9L664 0L658 49.9Z" fill="#b6c4d1" stroke="#b6c4d1"></path><path d="M813 124.6L745 94.6L753 175.4Z" fill="#bbf2f9" stroke="#bbf2f9"></path><path d="M826 412.7L822 388.7L765 407.7Z" fill="#b9d7e5" stroke="#b9d7e5"></path><path d="M816 222.1L750 271.1L771 305Z" fill="#bbf2f9" stroke="#bbf2f9"></path><path d="M768 188.4L813 124.6L753 175.4Z" fill="#bae5f0" stroke="#bae5f0"></path><path d="M816 222.1L771 305L842 239.3Z" fill="#bdf8fc" stroke="#bdf8fc"></path><path d="M842 239.3L771 305L798 321.9Z" fill="#b9d7e5" stroke="#b9d7e5"></path><path d="M86 281.1L143 277.1L72 226.1Z" fill="#baebf5" stroke="#baebf5"></path><path d="M116 302L80 343.9L111 359.7Z" fill="#bdf8fc" stroke="#bdf8fc"></path><path d="M111 359.7L90 370.9L113 376.9Z" fill="#baebf5" stroke="#baebf5"></path><path d="M113 376.9L75 392.7L118 400.6Z" fill="#b7cad8" stroke="#b7cad8"></path><path d="M98 431.6L119 481.4L141 484.3Z" fill="#b8d1df" stroke="#b8d1df"></path><path d="M80 343.9L90 370.9L111 359.7Z" fill="#b4bec9" stroke="#b4bec9"></path><path d="M119 481.4L142 522.1L141 484.3Z" fill="#bbf2f9" stroke="#bbf2f9"></path><path d="M141 484.3L142 522.1L208 491.3Z" fill="#baebf5" stroke="#baebf5"></path><path d="M684 580.1L713 600L736 547.3Z" fill="#b7cad8" stroke="#b7cad8"></path><path d="M826 499.4L800 483.3L828 547.3Z" fill="#bae5f0" stroke="#bae5f0"></path><path d="M652 600L713 600L684 580.1Z" fill="#b6c4d1" stroke="#b6c4d1"></path><path d="M98 431.6L184 455.4L118 400.6Z" fill="#b7cad8" stroke="#b7cad8"></path><path d="M800 483.3L737 542.1L828 547.3Z" fill="#bdf8fc" stroke="#bdf8fc"></path><path d="M791 463.4L826 412.7L765 407.7Z" fill="#bdf8fc" stroke="#bdf8fc"></path><path d="M763 35.9L738 69.9L790 65.7Z" fill="#b8d1df" stroke="#b8d1df"></path><path d="M745 94.6L738 69.9L735 85.7Z" fill="#bfffff" stroke="#bfffff"></path><path d="M735 85.7L738 69.9L666 46.9Z" fill="#b7cad8" stroke="#b7cad8"></path><path d="M72 226.1L143 277.1L148 198.4Z" fill="#bfffff" stroke="#bfffff"></path><path d="M88 300L80 343.9L116 302Z" fill="#b8d1df" stroke="#b8d1df"></path><path d="M824 451.4L826 412.7L791 463.4Z" fill="#bfffff" stroke="#bfffff"></path><path d="M872 275.1L842 239.3L798 321.9Z" fill="#bdf8fc" stroke="#bdf8fc"></path><path d="M842 239.3L811 185.4L810 205.3Z" fill="#bfffff" stroke="#bfffff"></path><path d="M810 205.3L811 185.4L768 188.4Z" fill="#b7cad8" stroke="#b7cad8"></path><path d="M72 407.7L98 431.6L118 400.6Z" fill="#bdf8fc" stroke="#bdf8fc"></path><path d="M33 319L80 343.9L88 300Z" fill="#b7cad8" stroke="#b7cad8"></path><path d="M90 370.9L75 392.7L113 376.9Z" fill="#b7cad8" stroke="#b7cad8"></path><path d="M708 0L664 0L666 46.9Z" fill="#b9d7e5" stroke="#b9d7e5"></path><path d="M54 465.4L107 479.3L98 431.6Z" fill="#bfffff" stroke="#bfffff"></path><path d="M98 431.6L107 479.3L119 481.4Z" fill="#b6c4d1" stroke="#b6c4d1"></path><path d="M119 481.4L107 479.3L142 522.1Z" fill="#b7cad8" stroke="#b7cad8"></path><path d="M823 459.6L791 463.4L800 483.3Z" fill="#bdf8fc" stroke="#bdf8fc"></path><path d="M823 459.6L824 451.4L791 463.4Z" fill="#b7cad8" stroke="#b7cad8"></path><path d="M824 451.4L832 427.6L826 412.7Z" fill="#b4bec9" stroke="#b4bec9"></path><path d="M826 412.7L854 354.9L822 388.7Z" fill="#b7cad8" stroke="#b7cad8"></path><path d="M826 499.4L823 459.6L800 483.3Z" fill="#bfffff" stroke="#bfffff"></path><path d="M900 438.4L900 415.7L832 427.6Z" fill="#b9d7e5" stroke="#b9d7e5"></path><path d="M72 407.7L75 392.7L47 397.6Z" fill="#bbf2f9" stroke="#bbf2f9"></path><path d="M80 343.9L75 392.7L90 370.9Z" fill="#b9d7e5" stroke="#b9d7e5"></path><path d="M854 354.9L786 340.9L822 388.7Z" fill="#bae5f0" stroke="#bae5f0"></path><path d="M816 222.1L842 239.3L810 205.3Z" fill="#bdf8fc" stroke="#bdf8fc"></path><path d="M887 322L854 354.9L900 325.9Z" fill="#b9deeb" stroke="#b9deeb"></path><path d="M900 415.7L854 354.9L826 412.7Z" fill="#bdf8fc" stroke="#bdf8fc"></path><path d="M171 46.9L154 70.7L218 68.9Z" fill="#b8d1df" stroke="#b8d1df"></path><path d="M218 68.9L154 70.7L208 118.7Z" fill="#b7cad8" stroke="#b7cad8"></path><path d="M153 144.6L115 108.7L145 157.6Z" fill="#bdf8fc" stroke="#bdf8fc"></path><path d="M70 208.3L72 226.1L133 181.3Z" fill="#b7cad8" stroke="#b7cad8"></path><path d="M133 181.3L72 226.1L148 198.4Z" fill="#b9d7e5" stroke="#b9d7e5"></path><path d="M47 397.6L75 392.7L80 343.9Z" fill="#baebf5" stroke="#baebf5"></path><path d="M75 392.7L72 407.7L118 400.6Z" fill="#bbf2f9" stroke="#bbf2f9"></path><path d="M142 522.1L172 600L210 527.3Z" fill="#b8d1df" stroke="#b8d1df"></path><path d="M125 582.1L172 600L142 522.1Z" fill="#bbf2f9" stroke="#bbf2f9"></path><path d="M204 0L171 46.9L218 68.9Z" fill="#b8d1df" stroke="#b8d1df"></path><path d="M76 165.4L133 181.3L145 157.6Z" fill="#bfffff" stroke="#bfffff"></path><path d="M33 319L47 397.6L80 343.9Z" fill="#bfffff" stroke="#bfffff"></path><path d="M873 148.4L813 124.6L811 185.4Z" fill="#bbf2f9" stroke="#bbf2f9"></path><path d="M811 185.4L813 124.6L768 188.4Z" fill="#b6c4d1" stroke="#b6c4d1"></path><path d="M738 69.9L708 0L666 46.9Z" fill="#b7cad8" stroke="#b7cad8"></path><path d="M114 76.7L115 108.7L154 70.7Z" fill="#baebf5" stroke="#baebf5"></path><path d="M154 70.7L115 108.7L153 144.6Z" fill="#b9deeb" stroke="#b9deeb"></path><path d="M828 547.3L737 542.1L736 547.3Z" fill="#bae5f0" stroke="#bae5f0"></path><path d="M900 438.4L832 427.6L900 457.6Z" fill="#b9d7e5" stroke="#b9d7e5"></path><path d="M76 165.4L70 208.3L133 181.3Z" fill="#baebf5" stroke="#baebf5"></path><path d="M33 319L88 300L86 281.1Z" fill="#b4bec9" stroke="#b4bec9"></path><path d="M763 35.9L708 0L738 69.9Z" fill="#b7cad8" stroke="#b7cad8"></path><path d="M295 0L204 0L293 39.9Z" fill="#b6c4d1" stroke="#b6c4d1"></path><path d="M134 0L114 76.7L154 70.7Z" fill="#b9deeb" stroke="#b9deeb"></path><path d="M854 354.9L872 275.1L798 321.9Z" fill="#b8d1df" stroke="#b8d1df"></path><path d="M842 239.3L873 148.4L811 185.4Z" fill="#b9d7e5" stroke="#b9d7e5"></path><path d="M887 322L872 275.1L854 354.9Z" fill="#b8d1df" stroke="#b8d1df"></path><path d="M115 108.7L76 165.4L145 157.6Z" fill="#b7cad8" stroke="#b7cad8"></path><path d="M820 79.9L812 100.7L872 125.6Z" fill="#b9d7e5" stroke="#b9d7e5"></path><path d="M813 124.6L812 100.7L745 94.6Z" fill="#b7cad8" stroke="#b7cad8"></path><path d="M790 65.7L738 69.9L745 94.6Z" fill="#bfffff" stroke="#bfffff"></path><path d="M812 100.7L790 65.7L745 94.6Z" fill="#bae5f0" stroke="#bae5f0"></path><path d="M33 319L86 281.1L0 245.3Z" fill="#bdf8fc" stroke="#bdf8fc"></path><path d="M72 407.7L54 465.4L98 431.6Z" fill="#b6c4d1" stroke="#b6c4d1"></path><path d="M109 574.1L125 582.1L142 522.1Z" fill="#b9deeb" stroke="#b9deeb"></path><path d="M713 600L779 600L736 547.3Z" fill="#b7cad8" stroke="#b7cad8"></path><path d="M109 574.1L142 522.1L76 542.1Z" fill="#bfffff" stroke="#bfffff"></path><path d="M204 0L171 12.9L171 46.9Z" fill="#bae5f0" stroke="#bae5f0"></path><path d="M115 108.7L55 154.6L76 165.4Z" fill="#b9deeb" stroke="#b9deeb"></path><path d="M779 600L781 600L736 547.3Z" fill="#b6c4d1" stroke="#b6c4d1"></path><path d="M134 0L154 70.7L171 46.9Z" fill="#b7cad8" stroke="#b7cad8"></path><path d="M12 229.3L72 226.1L70 208.3Z" fill="#b9d7e5" stroke="#b9d7e5"></path><path d="M12 229.3L86 281.1L72 226.1Z" fill="#bdf8fc" stroke="#bdf8fc"></path><path d="M900 325.9L854 354.9L900 415.7Z" fill="#bae5f0" stroke="#bae5f0"></path><path d="M47 397.6L54 465.4L72 407.7Z" fill="#bdf8fc" stroke="#bdf8fc"></path><path d="M38 490.4L54 465.4L0 470.4Z" fill="#b9d7e5" stroke="#b9d7e5"></path><path d="M781 600L828 547.3L736 547.3Z" fill="#b7cad8" stroke="#b7cad8"></path><path d="M832 427.6L824 451.4L900 457.6Z" fill="#b7cad8" stroke="#b7cad8"></path><path d="M76 542.1L142 522.1L107 479.3Z" fill="#b7cad8" stroke="#b7cad8"></path><path d="M872 125.6L812 100.7L813 124.6Z" fill="#bbf2f9" stroke="#bbf2f9"></path><path d="M812 100.7L817 72.7L790 65.7Z" fill="#bbf2f9" stroke="#bbf2f9"></path><path d="M799 0L787 0L818 14.9Z" fill="#b8d1df" stroke="#b8d1df"></path><path d="M900 223.3L842 239.3L872 275.1Z" fill="#bdf8fc" stroke="#bdf8fc"></path><path d="M877 546.1L842 532.1L828 547.3Z" fill="#b9d7e5" stroke="#b9d7e5"></path><path d="M828 547.3L842 532.1L826 499.4Z" fill="#bae5f0" stroke="#bae5f0"></path><path d="M204 0L167 0L171 12.9Z" fill="#b9deeb" stroke="#b9deeb"></path><path d="M171 12.9L134 0L171 46.9Z" fill="#bae5f0" stroke="#bae5f0"></path><path d="M820 79.9L817 72.7L812 100.7Z" fill="#bdf8fc" stroke="#bdf8fc"></path><path d="M54 465.4L59 498.3L107 479.3Z" fill="#b4bec9" stroke="#b4bec9"></path><path d="M125 582.1L121 600L172 600Z" fill="#baebf5" stroke="#baebf5"></path><path d="M106 600L121 600L125 582.1Z" fill="#b4bec9" stroke="#b4bec9"></path><path d="M106 600L125 582.1L109 574.1Z" fill="#bae5f0" stroke="#bae5f0"></path><path d="M787 0L756 0L763 35.9Z" fill="#b4bec9" stroke="#b4bec9"></path><path d="M763 35.9L756 0L708 0Z" fill="#b7cad8" stroke="#b7cad8"></path><path d="M43 79.7L55 154.6L115 108.7Z" fill="#bbf2f9" stroke="#bbf2f9"></path><path d="M76 165.4L55 154.6L70 208.3Z" fill="#baebf5" stroke="#baebf5"></path><path d="M12 171.4L0 135.6L0 158.4Z" fill="#b8d1df" stroke="#b8d1df"></path><path d="M900 415.7L826 412.7L832 427.6Z" fill="#b9deeb" stroke="#b9deeb"></path><path d="M887 322L900 283L872 275.1Z" fill="#bdf8fc" stroke="#bdf8fc"></path><path d="M59 498.3L76 542.1L107 479.3Z" fill="#bfffff" stroke="#bfffff"></path><path d="M900 325.9L900 283L887 322Z" fill="#bfffff" stroke="#bfffff"></path><path d="M900 283L900 267.1L872 275.1Z" fill="#bfffff" stroke="#bfffff"></path><path d="M900 32.9L818 14.9L817 72.7Z" fill="#bdf8fc" stroke="#bdf8fc"></path><path d="M900 223.3L873 148.4L842 239.3Z" fill="#bae5f0" stroke="#bae5f0"></path><path d="M50 600L106 600L109 574.1Z" fill="#b6c4d1" stroke="#b6c4d1"></path><path d="M824 451.4L823 459.6L900 457.6Z" fill="#b7cad8" stroke="#b7cad8"></path><path d="M900 267.1L900 223.3L872 275.1Z" fill="#b6c4d1" stroke="#b6c4d1"></path><path d="M59 498.3L38 490.4L76 542.1Z" fill="#b8d1df" stroke="#b8d1df"></path><path d="M76 542.1L50 600L109 574.1Z" fill="#b8d1df" stroke="#b8d1df"></path><path d="M54 465.4L38 490.4L59 498.3Z" fill="#bbf2f9" stroke="#bbf2f9"></path><path d="M0 427.6L54 465.4L47 397.6Z" fill="#bbf2f9" stroke="#bbf2f9"></path><path d="M900 457.6L823 459.6L826 499.4Z" fill="#b6c4d1" stroke="#b6c4d1"></path><path d="M900 143.4L872 125.6L873 148.4Z" fill="#bae5f0" stroke="#bae5f0"></path><path d="M873 148.4L872 125.6L813 124.6Z" fill="#bdf8fc" stroke="#bdf8fc"></path><path d="M787 0L763 35.9L818 14.9Z" fill="#bfffff" stroke="#bfffff"></path><path d="M12 171.4L12 229.3L70 208.3Z" fill="#baebf5" stroke="#baebf5"></path><path d="M33 319L0 340.9L47 397.6Z" fill="#b9d7e5" stroke="#b9d7e5"></path><path d="M167 0L134 0L171 12.9Z" fill="#b4bec9" stroke="#b4bec9"></path><path d="M0 222.1L0 245.3L12 229.3Z" fill="#bdf8fc" stroke="#bdf8fc"></path><path d="M763 35.9L790 65.7L818 14.9Z" fill="#b9deeb" stroke="#b9deeb"></path><path d="M0 305L0 340.9L33 319Z" fill="#b9deeb" stroke="#b9deeb"></path><path d="M0 245.3L0 305L33 319Z" fill="#b9deeb" stroke="#b9deeb"></path><path d="M900 530.3L900 457.6L826 499.4Z" fill="#b4bec9" stroke="#b4bec9"></path><path d="M781 600L831 600L828 547.3Z" fill="#b8d1df" stroke="#b8d1df"></path><path d="M842 532.1L900 530.3L826 499.4Z" fill="#b8d1df" stroke="#b8d1df"></path><path d="M0 340.9L0 381.7L47 397.6Z" fill="#b4bec9" stroke="#b4bec9"></path><path d="M0 222.1L12 229.3L12 171.4Z" fill="#bdf8fc" stroke="#bdf8fc"></path><path d="M12 229.3L0 245.3L86 281.1Z" fill="#b8d1df" stroke="#b8d1df"></path><path d="M818 14.9L790 65.7L817 72.7Z" fill="#b7cad8" stroke="#b7cad8"></path><path d="M12 171.4L70 208.3L55 154.6Z" fill="#baebf5" stroke="#baebf5"></path><path d="M0 381.7L0 427.6L47 397.6Z" fill="#b6c4d1" stroke="#b6c4d1"></path><path d="M900 32.9L817 72.7L820 79.9Z" fill="#b4bec9" stroke="#b4bec9"></path><path d="M43 79.7L115 108.7L114 76.7Z" fill="#bae5f0" stroke="#bae5f0"></path><path d="M831 600L877 546.1L828 547.3Z" fill="#bae5f0" stroke="#bae5f0"></path><path d="M900 223.3L900 143.4L873 148.4Z" fill="#b9deeb" stroke="#b9deeb"></path><path d="M872 125.6L900 115.7L820 79.9Z" fill="#b9d7e5" stroke="#b9d7e5"></path><path d="M73 4.9L43 79.7L114 76.7Z" fill="#bbf2f9" stroke="#bbf2f9"></path><path d="M0 427.6L0 470.4L54 465.4Z" fill="#b9d7e5" stroke="#b9d7e5"></path><path d="M38 490.4L0 578.1L76 542.1Z" fill="#b8d1df" stroke="#b8d1df"></path><path d="M900 143.4L900 123.6L872 125.6Z" fill="#b6c4d1" stroke="#b6c4d1"></path><path d="M900 563.1L900 530.3L877 546.1Z" fill="#bfffff" stroke="#bfffff"></path><path d="M877 546.1L900 530.3L842 532.1Z" fill="#bfffff" stroke="#bfffff"></path><path d="M900 123.6L900 115.7L872 125.6Z" fill="#baebf5" stroke="#baebf5"></path><path d="M0 135.6L12 171.4L55 154.6Z" fill="#b6c4d1" stroke="#b6c4d1"></path><path d="M12 171.4L0 158.4L0 222.1Z" fill="#b8d1df" stroke="#b8d1df"></path><path d="M0 470.4L0 493.3L38 490.4Z" fill="#bdf8fc" stroke="#bdf8fc"></path><path d="M0 578.1L50 600L76 542.1Z" fill="#bfffff" stroke="#bfffff"></path><path d="M0 118.7L0 135.6L55 154.6Z" fill="#b6c4d1" stroke="#b6c4d1"></path><path d="M134 0L73 4.9L114 76.7Z" fill="#b7cad8" stroke="#b7cad8"></path><path d="M9 98.6L0 118.7L55 154.6Z" fill="#b8d1df" stroke="#b8d1df"></path><path d="M900 600L900 563.1L877 546.1Z" fill="#baebf5" stroke="#baebf5"></path><path d="M9 98.6L55 154.6L43 79.7Z" fill="#b9d7e5" stroke="#b9d7e5"></path><path d="M0 43.9L9 98.6L43 79.7Z" fill="#b9d7e5" stroke="#b9d7e5"></path><path d="M134 0L65 0L73 4.9Z" fill="#baebf5" stroke="#baebf5"></path><path d="M73 4.9L24 15.9L43 79.7Z" fill="#baebf5" stroke="#baebf5"></path><path d="M65 0L59 0L73 4.9Z" fill="#b9d7e5" stroke="#b9d7e5"></path><path d="M831 600L900 600L877 546.1Z" fill="#b9d7e5" stroke="#b9d7e5"></path><path d="M0 493.3L0 578.1L38 490.4Z" fill="#b9d7e5" stroke="#b9d7e5"></path><path d="M900 115.7L900 32.9L820 79.9Z" fill="#b8d1df" stroke="#b8d1df"></path><path d="M818 14.9L881 0L799 0Z" fill="#bfffff" stroke="#bfffff"></path><path d="M900 32.9L881 0L818 14.9Z" fill="#b9d7e5" stroke="#b9d7e5"></path><path d="M59 0L24 15.9L73 4.9Z" fill="#b7cad8" stroke="#b7cad8"></path><path d="M9 98.6L0 43.9L0 118.7Z" fill="#bfffff" stroke="#bfffff"></path><path d="M0 578.1L0 600L50 600Z" fill="#bbf2f9" stroke="#bbf2f9"></path><path d="M24 15.9L0 43.9L43 79.7Z" fill="#bfffff" stroke="#bfffff"></path><path d="M900 32.9L900 0L881 0Z" fill="#bae5f0" stroke="#bae5f0"></path><path d="M59 0L0 0L24 15.9Z" fill="#bdf8fc" stroke="#bdf8fc"></path><path d="M24 15.9L0 0L0 43.9Z" fill="#bfffff" stroke="#bfffff"></path></g></svg>